<?xml version="1.0" encoding="UTF-8"?><svg id="Capa_1" xmlns="http://www.w3.org/2000/svg" viewBox="0 0 5029.62 2166.18"><defs><style>.cls-1{fill:#fff;}.cls-2{fill:#fff9fa;}.cls-3{fill:#231f20;}</style></defs><g><path class="cls-1" d="m1603.76,1889.97v-125.36c0-17-.83-32.34-2.48-46.03-1.65-13.69-5.31-25.38-10.98-35.06-5.67-9.68-13.93-17.35-24.79-23.02s-25.5-8.97-43.91-9.92v-.71h248.59v.71c-18.41.94-33.05,4.25-43.91,9.92s-19.12,13.34-24.79,23.02c-5.67,9.68-9.32,21.25-10.98,34.7-1.65,13.46-2.48,28.68-2.48,45.68v288.25c0,16.53.83,31.52,2.48,44.97,1.65,13.46,5.19,25.14,10.62,35.06s13.57,17.71,24.43,23.37,25.5,8.97,43.91,9.92h-247.88c18.89-.94,33.76-4.25,44.62-9.92s19.12-13.34,24.79-23.02c5.67-9.68,9.21-21.36,10.62-35.06s2.12-28.8,2.12-45.33v-143.77h-276.91v143.77c0,16.53.71,31.63,2.12,45.33s4.96,25.38,10.62,35.06c5.67,9.68,13.81,17.35,24.43,23.02s25.14,8.97,43.56,9.92h-244.34c17.94-.94,33.76-5.31,47.45-13.1,13.69-7.79,22.66-21.36,26.91-40.72,2.83-12.75,4.25-32.58,4.25-59.49v-288.25c0-19.36-.94-36.59-2.83-51.7s-8.03-28.09-18.41-38.95c-8.03-8.5-16.88-14.16-26.56-17s-21.13-4.72-34.35-5.67v-.71h248.59v.71c-18.41.94-33.05,4.25-43.91,9.92s-19.12,13.46-24.79,23.37c-5.67,9.92-9.21,21.6-10.62,35.06-1.42,13.46-2.12,28.68-2.12,45.68v125.36h276.91Z"/><path class="cls-1" d="m1918.92,1829.06c8.97-25.97,21.48-49.58,37.54-70.82,16.05-21.25,35.29-39.9,57.72-55.95,22.43-16.05,46.86-28.8,73.3-38.24,33.52-11.8,66.81-16.53,99.86-14.16,33.05,2.36,64.09,10.15,93.13,23.37s54.89,31.16,77.55,53.83,40.72,48.28,54.18,76.84c13.46,28.56,21.13,59.25,23.02,92.07s-3.78,65.98-17,99.51c-9.92,25.5-23.37,48.63-40.37,69.41-17,20.77-36.59,38.6-58.78,53.47s-46.27,26.44-72.24,34.7c-25.97,8.26-52.64,12.39-80.03,12.39-35.41,0-68.93-6.49-100.57-19.48-31.63-12.98-59.37-30.81-83.22-53.47-23.84-22.66-42.73-49.46-56.66-80.38-13.93-30.93-20.89-64.57-20.89-100.92,0-28.8,4.49-56.19,13.46-82.15Zm130.31,263.46c16.52,20.78,34.23,36.12,53.12,46.04,18.89,9.92,41.31,14.87,67.28,14.87s49.22-4.84,68.34-14.52c19.12-9.68,36.95-25.14,53.47-46.39,15.58-19.36,27.74-40.84,36.47-64.45,8.73-23.61,14.75-47.92,18.06-72.95s3.66-50.4,1.06-76.13c-2.6-25.73-7.44-50.4-14.52-74.01-4.25-13.22-9.33-26.44-15.23-39.66-5.9-13.22-12.87-25.61-20.89-37.18-8.03-11.57-17-22.19-26.91-31.87-9.92-9.68-20.77-17.35-32.58-23.02-9.44-4.25-19.95-7.55-31.52-9.92s-23.25-3.54-35.06-3.54-23.49,1.18-35.06,3.54c-11.57,2.36-22.07,5.67-31.52,9.92-12.28,5.67-23.37,13.22-33.29,22.66s-18.89,19.95-26.91,31.52-14.99,23.96-20.89,37.18c-5.9,13.22-10.74,26.44-14.52,39.66-10.39,34-15.58,71.29-15.58,111.9,0,68.93,18.89,127.72,56.66,176.35Z"/><path class="cls-1" d="m3190.17,1666.53c-13.69,9.68-21.96,26.32-24.79,49.93-.94,6.61-1.65,13.81-2.12,21.6-.47,7.79-.71,16.41-.71,25.85v288.25c0,17.94,1.06,35.06,3.19,51.35,2.12,16.29,8.38,29.63,18.77,40.01,14.64,14.17,34.7,21.48,60.2,21.96v.71h-248.58v-.71c18.88-.94,33.76-4.25,44.62-9.92s19.12-13.34,24.79-23.02c5.67-9.68,9.21-21.25,10.62-34.7,1.42-13.46,2.12-28.68,2.12-45.68v-349.15l-197.59,463.18h-15.58l-195.47-456.09v342.07c0,17,.71,32.34,2.12,46.03,1.42,13.69,4.96,25.38,10.62,35.06,5.66,9.68,13.93,17.23,24.79,22.66s25.5,8.62,43.91,9.56v.71h-179.89v-.71c18.41-.94,33.05-4.25,43.91-9.92s19.12-13.34,24.79-23.02c5.67-9.68,9.32-21.25,10.98-34.7,1.65-13.46,2.48-28.68,2.48-45.68v-288.25c0-16.53-.71-31.52-2.12-44.97-1.42-13.46-4.84-25.02-10.27-34.7-5.43-9.68-13.69-17.47-24.79-23.37-11.1-5.9-26.09-9.33-44.97-10.27v-.71h172.81l165.72,409.35,171.39-409.35h163.6v.71c-22.66.94-40.84,6.26-54.53,15.93Z"/><path class="cls-1" d="m3358.73,2166.18c18.88-.94,33.76-4.37,44.62-10.27,10.86-5.9,18.89-13.81,24.08-23.73s8.5-21.6,9.91-35.06c1.42-13.46,2.12-28.45,2.12-44.97v-287.54c0-17-.71-32.34-2.12-46.03s-4.96-25.38-10.62-35.06c-5.67-9.68-13.93-17.35-24.79-23.02s-25.5-8.97-43.91-9.92h61.62v-.71h354.82v128.9c-4.25-28.33-13.81-52.29-28.68-71.88-14.87-19.59-36.71-32.7-65.51-39.31-8.97-1.89-20.18-3.3-33.64-4.25-13.46-.94-27.38-1.53-41.79-1.77s-28.8-.24-43.2,0-26.79.35-37.18.35v226.63h38.24c12.75,0,24.67-1.3,35.77-3.89s20.89-7.2,29.39-13.81,15.11-16.76,19.83-30.45l3.19-8.14c1.18-3.07,2.24-6.49,3.19-10.27v179.18c-2.36-17.47-5.79-32.58-10.27-45.33-4.49-12.75-10.74-23.25-18.77-31.52-8.03-8.26-18.41-14.28-31.16-18.06s-28.33-5.67-46.74-5.67h-22.66v108.36c0,9.92.24,19.12.71,27.62.47,8.5,1.18,15.82,2.12,21.96,1.89,17.94,6.14,32.93,12.75,44.97,6.61,12.04,15.11,21.84,25.49,29.39,10.39,7.55,22.78,12.87,37.18,15.93,14.4,3.07,30.34,4.6,47.81,4.6s34.7-1.42,50.28-4.25c15.58-2.83,29.86-7.55,42.85-14.16,12.98-6.61,24.55-15.58,34.7-26.91,10.15-11.33,18.53-25.26,25.14-41.79,2.83-6.61,5.55-14.52,8.14-23.72,2.6-9.21,5.08-19.24,7.44-30.1v152.98h-215.3l-245.04.71Z"/></g><g><line class="cls-3" x1="0" y1="1324.21" x2="5029.61" y2="1322.59"/><rect class="cls-1" x="0" y="1311.06" width="5029.61" height="24.68"/></g><g><line class="cls-2" x1="0" y1="1400.24" x2="5029.61" y2="1398.63"/><rect class="cls-1" x="0" y="1387.1" width="5029.61" height="24.68"/></g><g><path class="cls-1" d="m45.45,722.82c13.32,31.63,29.34,59.92,48.06,84.89s40.99,44.94,66.79,59.92c25.8,14.98,55.76,22.47,89.88,22.47,25.8,0,49.31-4.58,70.53-13.73,21.22-9.16,39.12-21.43,53.68-36.83,14.56-15.4,25.8-33.5,33.71-54.31,7.91-20.81,11.86-43.28,11.86-67.41,0-43.28-9.78-78.86-29.34-106.74s-43.9-51.81-73.03-71.78c-29.13-19.97-60.55-37.87-94.25-53.68-33.71-15.81-65.12-33.71-94.25-53.68-29.13-19.97-53.47-44.11-73.03-72.41s-29.34-64.92-29.34-109.86c0-34.96,6.45-67.41,19.35-97.38,12.9-29.96,30.38-56.18,52.43-78.65,22.05-22.47,47.65-40.16,76.78-53.06C204.41,7.7,235.62,1.25,268.91,1.25c19.14,0,37.87,2.7,56.18,8.11s35.37,11.24,51.18,17.48l43.07,16.85c12.9,4.99,24.34,7.49,34.33,7.49,15.81,0,26.63-10.82,32.46-32.46v240.94c-7.49-25.8-16.44-52.85-26.84-81.15-10.4-28.3-23.72-54.1-39.95-77.4-16.23-23.3-36-42.45-59.3-57.43-23.3-14.98-51.6-22.47-84.89-22.47-16.65,0-33.91,2.91-51.81,8.74-17.89,5.83-34.12,14.98-48.69,27.46-14.56,12.48-26.42,28.3-35.58,47.44-9.15,19.14-13.73,41.61-13.73,67.41,0,34.96,12.07,66.58,36.2,94.88s57.84,52.85,101.12,73.66l106.11,51.18c34.96,17.48,66.17,37.66,93.63,60.55,27.46,22.89,49.52,49.73,66.17,80.52,16.65,30.79,24.97,68.66,24.97,113.6,0,36.62-6.66,71.16-19.97,103.62-13.32,32.46-32.25,60.76-56.8,84.89s-53.89,43.07-88.01,56.8c-34.12,13.73-71.99,20.6-113.6,20.6-26.63,0-53.68-2.91-81.15-8.74-27.46-5.83-53.27-14.15-77.4-24.97-16.65-6.66-29.34-12.07-38.08-16.23-8.74-4.16-17.69-6.24-26.84-6.24-18.31,0-31.21,8.32-38.7,24.97v-254.67c8.32,32.46,19.14,64.5,32.46,96.13Z"/><path class="cls-1" d="m1041.66,2.5c-22.47,1.66-42.45,4.99-59.92,9.99s-33.29,14.98-47.44,29.96c-19.14,20.81-30.17,45.57-33.08,74.28-2.91,28.71-4.37,62.63-4.37,101.74v350.8c0,45.77,1.46,85.72,4.37,119.85,2.91,34.12,13.52,66.17,31.83,96.13,24.14,38.28,52.43,64.92,84.89,79.9,32.46,14.98,72.41,22.47,119.85,22.47,24.97,0,51.81-2.5,80.52-7.49,28.71-4.99,56.39-12.9,83.02-23.72s50.77-24.76,72.41-41.82c21.64-17.06,37.87-37.24,48.69-60.55,10.82-24.14,16.85-53.06,18.1-86.76,1.25-33.71,1.87-73.03,1.87-117.97V203.49c0-29.96-1.46-56.8-4.37-80.52-2.91-23.72-9.36-44.32-19.35-61.8-9.99-17.48-24.55-31.21-43.69-41.2-19.14-9.99-44.94-15.81-77.4-17.48v-1.25h317.09v1.25c-32.46,1.66-58.26,7.49-77.4,17.48-19.14,9.99-33.71,23.51-43.69,40.57s-16.44,37.66-19.35,61.8c-2.91,24.14-4.37,51.18-4.37,81.15v394.49c0,26.63-.62,50.56-1.87,71.78-1.25,21.22-4.37,40.78-9.36,58.67-4.99,17.89-12.48,34.54-22.47,49.94-9.99,15.4-23.3,30.59-39.95,45.57-66.58,57.43-162.29,86.14-287.13,86.14-44.11,0-86.56-3.75-127.34-11.24-40.78-7.49-77.19-19.56-109.23-36.2-32.04-16.65-58.67-38.91-79.9-66.79s-34.75-62.63-40.57-104.24c-2.5-20.81-3.75-57.43-3.75-109.86V203.49c0-34.96-1.66-65.75-4.99-92.38s-14.15-49.52-32.46-68.66c-14.98-14.98-30.79-24.97-47.44-29.96-16.65-4.99-36.62-8.32-59.92-9.99v-1.25h438.19v1.25Z"/><path class="cls-1" d="m1688.32,318.97c15.81-45.36,37.87-86.76,66.17-124.22,28.3-37.45,62.21-70.33,101.74-98.62,39.53-28.3,82.6-50.77,129.21-67.41,59.09-20.81,117.77-29.13,176.02-24.97,58.26,4.16,112.77,17.89,163.54,41.2,50.77,23.3,96.33,54.72,136.7,94.25,40.37,39.53,72.2,84.27,95.5,134.2,23.3,49.94,36.83,103.82,40.57,161.67,3.75,57.84-5.62,116.31-28.09,175.4-18.31,44.94-42.65,85.72-73.03,122.34-30.38,36.62-65.12,68.04-104.24,94.25-39.12,26.22-81.35,46.61-126.71,61.17-45.36,14.56-91.76,21.85-139.2,21.85-61.59,0-120.26-11.24-176.02-33.71s-104.87-53.68-147.31-93.63c-42.45-39.95-76.15-87.18-101.12-141.69s-37.45-113.81-37.45-177.9c0-50.77,7.91-98.83,23.72-144.19Zm787.74,621.7c-4.16,12.07-9.78,24.76-16.85,38.08-7.07,13.32-15.6,26.22-25.59,38.7-9.99,12.48-20.81,22.47-32.46,29.96-20.81,14.15-42.24,24.13-64.29,29.96-22.05,5.83-44.73,8.32-68.04,7.49-23.3-.83-47.65-4.16-73.03-9.99-25.38-5.83-51.81-13.32-79.27-22.47-17.48-5.83-35.58-11.44-54.31-16.85-18.73-5.41-37.66-9.57-56.8-12.48-19.14-2.91-37.87-3.54-56.18-1.87-18.31,1.67-34.96,7.07-49.94,16.23-14.15,8.32-28.09,19.56-41.82,33.71-13.73,14.15-28.09,29.96-43.07,47.44,0-5.83,1.46-13.73,4.37-23.72s7.07-20.81,12.48-32.46c5.41-11.65,11.65-22.89,18.73-33.71s14.36-19.97,21.85-27.46c26.63-24.97,53.06-42.03,79.27-51.18s52.22-13.32,78.02-12.48c25.8.83,51.39,5.2,76.78,13.11l76.15,24.34c25.38,8.32,50.56,15.81,75.53,22.47,24.97,6.66,49.94,8.95,74.9,6.87s49.94-9.99,74.9-23.72,49.94-36.41,74.9-68.04c0,6.66-2.08,16.02-6.24,28.09Zm-556.79-157.92c28.3,35.79,59.51,62.63,93.63,80.52s73.66,26.84,118.6,26.84,85.31-8.74,118.6-26.22c33.29-17.48,64.5-44.53,93.63-81.15,27.46-34.12,49.1-71.99,64.92-113.6s26.42-84.47,31.83-128.58c5.41-44.11,6.03-88.84,1.87-134.2-4.16-45.36-12.48-88.84-24.97-130.46-6.66-23.3-15.4-46.61-26.22-69.91-10.82-23.3-23.3-45.15-37.45-65.54s-29.96-38.91-47.44-55.55-36.62-29.96-57.43-39.95c-16.65-7.49-34.96-13.32-54.93-17.48-19.97-4.16-40.57-6.24-61.8-6.24s-41.82,2.08-61.8,6.24-38.28,9.99-54.93,17.48c-21.64,9.99-41.2,23.1-58.67,39.32-17.48,16.23-33.29,34.75-47.44,55.55s-26.63,42.86-37.45,66.17c-10.82,23.3-19.56,46.61-26.22,69.91-9.16,29.96-15.81,61.38-19.97,94.25s-6.24,66.79-6.24,101.74c0,123.18,33.29,226.79,99.87,310.85Z"/><path class="cls-1" d="m3029.08,2.5c-22.47,1.66-42.45,4.99-59.92,9.99-17.48,4.99-33.29,14.98-47.44,29.96-19.14,20.81-30.17,45.57-33.08,74.28-2.91,28.71-4.37,62.63-4.37,101.74v350.8c0,45.77,1.46,85.72,4.37,119.85,2.91,34.12,13.52,66.17,31.83,96.13,24.13,38.28,52.43,64.92,84.89,79.9,32.46,14.98,72.41,22.47,119.85,22.47,24.97,0,51.81-2.5,80.52-7.49s56.39-12.9,83.02-23.72,50.77-24.76,72.41-41.82,37.87-37.24,48.69-60.55c10.82-24.14,16.85-53.06,18.1-86.76,1.25-33.71,1.87-73.03,1.87-117.97V203.49c0-29.96-1.46-56.8-4.37-80.52-2.91-23.72-9.36-44.32-19.35-61.8-9.99-17.48-24.55-31.21-43.7-41.2-19.14-9.99-44.94-15.81-77.4-17.48v-1.25h317.09v1.25c-32.46,1.66-58.26,7.49-77.4,17.48-19.14,9.99-33.71,23.51-43.7,40.57-9.99,17.06-16.44,37.66-19.35,61.8-2.91,24.14-4.37,51.18-4.37,81.15v394.49c0,26.63-.62,50.56-1.87,71.78-1.25,21.22-4.37,40.78-9.36,58.67-4.99,17.89-12.48,34.54-22.47,49.94-9.99,15.4-23.3,30.59-39.95,45.57-66.58,57.43-162.29,86.14-287.13,86.14-44.11,0-86.55-3.75-127.34-11.24-40.78-7.49-77.19-19.56-109.23-36.2-32.04-16.65-58.68-38.91-79.9-66.79s-34.75-62.63-40.57-104.24c-2.5-20.81-3.75-57.43-3.75-109.86V203.49c0-34.96-1.66-65.75-4.99-92.38-3.33-26.63-14.15-49.52-32.46-68.66-14.98-14.98-30.79-24.97-47.44-29.96s-36.62-8.32-59.92-9.99v-1.25h438.19v1.25Z"/><path class="cls-1" d="m4090.21,2.5c-33.29,1.66-59.51,7.49-78.65,17.48-19.14,9.99-33.71,23.72-43.7,41.2-9.99,17.48-16.23,38.08-18.72,61.8-2.5,23.72-3.75,50.14-3.75,79.27v508.1c0,29.13,1.25,55.55,3.75,79.27,2.5,23.72,8.74,44.32,18.72,61.8,9.99,17.48,24.55,31.21,43.7,41.2,19.14,9.99,44.94,15.81,77.4,17.48h-430.7c31.62-1.66,59.3-9.36,83.02-23.1,23.72-13.73,39.74-37.66,48.06-71.78,1.66-11.65,3.33-26.01,4.99-43.07,1.67-17.06,2.5-37.66,2.5-61.8V202.24c0-34.12-1.67-64.5-4.99-91.13-3.33-26.63-14.15-49.52-32.46-68.66-14.15-14.98-29.96-24.97-47.44-29.96-17.48-4.99-37.45-8.32-59.92-9.99v-1.25h438.19v1.25Z"/><path class="cls-1" d="m4334.9,566.77l-51.19,131.08c-6.66,16.65-12.9,34.12-18.72,52.43-5.83,18.31-9.16,36-9.99,53.06-.83,17.06,1.46,33.08,6.87,48.06,5.41,14.98,16.02,27.88,31.83,38.7,15.81,10.82,35.79,17.48,59.92,19.97h-280.89c36.62-3.33,66.16-17.89,88.64-43.69,22.47-25.8,42.03-56.18,58.67-91.13,6.66-14.15,14.15-31.63,22.47-52.43l29.96-73.66,168.53-436.94,16.23,37.45-112.36,289.63h228.46l9.99,27.46h-248.43Zm373.27,288.38c5.83-13.32,8.12-27.46,6.87-42.45s-4.99-30.17-11.24-45.57l-18.1-45.57-34.96-88.64-38.7-93.63-151.05-378.26L4535.89,0l298.37,720.33c13.32,31.63,27.26,62.84,41.82,93.63,14.56,30.79,31.83,53.68,51.81,68.66,12.48,9.15,26.22,15.4,41.2,18.73s32.04,6.24,51.18,8.74h-419.46c34.12-4.16,58.67-10.4,73.65-18.73,16.65-10.82,27.88-22.89,33.71-36.2Z"/></g></svg>